HIERARCHY
ROOT Hips
{
   OFFSET 0.00000 0.00000 0.00000
   CHANNELS 6 Xposition Yposition Zposition Zrotation Xrotation Yrotation
   JOINT Spine
   {
      OFFSET 0.000000 11.890501 0.000000
      CHANNELS 3 Zrotation Xrotation Yrotation
      JOINT Spine1
      {
         OFFSET -0.000000 25.657401 0.127660
         CHANNELS 3 Zrotation Xrotation Yrotation
         JOINT HEad
         {
            OFFSET 0.000000 8.734161 0.011340
            CHANNELS 3 Zrotation Xrotation Yrotation
            End Site
            {
               OFFSET -0.290000 12.774200 2.513950
            }
         }
         JOINT LeftShoulder1
         {
            OFFSET 8.990000 -0.362250 -0.220000
            CHANNELS 3 Zrotation Xrotation Yrotation
            JOINT LeftArm
            {
               OFFSET 10.282700 -0.003380 0.322120
               CHANNELS 3 Zrotation Xrotation Yrotation
               JOINT LeftForeArm
               {
                  OFFSET 32.766900 0.099140 -1.424340
                  CHANNELS 3 Zrotation Xrotation Yrotation
                  JOINT LeftHand
                  {
                     OFFSET 27.564301 0.085360 1.022160
                     CHANNELS 3 Zrotation Xrotation Yrotation
                     End Site
                     {
                        OFFSET 16.744301 -0.600000 1.502910
                     }
                  }
               }
            }
         }
         JOINT RightShoulder
         {
            OFFSET -8.990000 -0.362250 -0.220000
            CHANNELS 3 Zrotation Xrotation Yrotation
            JOINT RightArm
            {
               OFFSET -10.282700 -0.003380 0.322120
               CHANNELS 3 Zrotation Xrotation Yrotation
               JOINT RightForeArm
               {
                  OFFSET -32.897098 0.099140 -1.424340
                  CHANNELS 3 Zrotation Xrotation Yrotation
                  JOINT RightHand
                  {
                     OFFSET -27.492101 0.085360 1.022160
                     CHANNELS 3 Zrotation Xrotation Yrotation
                     End Site
                     {
                        OFFSET -16.631201 -0.600000 1.502910
                     }
                  }
               }
            }
         }
      }
   }
   JOINT LeftUpLeg
   {
      OFFSET 8.945800 -8.667070 0.101650
      CHANNELS 3 Zrotation Xrotation Yrotation
      JOINT LeftLeg
      {
         OFFSET 0.000000 -44.422697 1.372700
         CHANNELS 3 Zrotation Xrotation Yrotation
         JOINT LeftFoot
         {
            OFFSET -0.253550 -42.092399 -1.460590
            CHANNELS 3 Zrotation Xrotation Yrotation
            JOINT LeftToes
            {
               OFFSET -0.040000 -4.415090 8.499099
               CHANNELS 3 Zrotation Xrotation Yrotation
               End Site
               {
                  OFFSET 0.080000 -0.047450 9.779790
               }
            }
         }
      }
   }
   JOINT RightUpLeg
   {
      OFFSET -8.945800 -8.667070 0.101650
      CHANNELS 3 Zrotation Xrotation Yrotation
      JOINT RightLeg
      {
         OFFSET 0.000000 -44.422697 1.372700
         CHANNELS 3 Zrotation Xrotation Yrotation
         JOINT RightFoot
         {
            OFFSET 0.253550 -42.092399 -1.460590
            CHANNELS 3 Zrotation Xrotation Yrotation
            JOINT RightToes
            {
               OFFSET 0.040000 -4.415090 8.499099
               CHANNELS 3 Zrotation Xrotation Yrotation
               End Site
               {
                  OFFSET -0.080000 -0.137450 9.779790
               }
            }
         }
      }
   }
}
MOTION
Frames: 13
Frame Time: 0.016670
-22.746975 64.453038 -26.664557 46.441233 48.373042 138.292111 25.850830 53.292179 34.337871 20.209058 12.543367 -64.731806 1.342845 27.919293 -18.116276 -30.731770 -66.520715 1.825365 -13.604048 27.024297 -58.628547 -14.574428 20.266877 -50.422526 -31.392171 -62.828718 -91.426617 -55.168756 67.918855 54.823613 109.703944 -43.666769 159.714917 -29.002038 28.210035 60.215774 -9.439372 80.324001 -17.100311 2.856093 11.670586 15.519349 14.815324 31.004612 59.499895 -35.215786 49.218599 -18.474513 22.198081 29.858722 -79.268963 -69.547390 55.702156 75.503507 47.896831 9.326920 41.990350 13.373838 11.975195 97.532902 110.594321 -93.649017 24.797690
-22.877936 63.387474 -26.493618 42.211638 48.542633 139.232587 26.929597 56.121011 43.514442 15.333597 13.113821 -63.993661 2.641418 23.025987 -21.690734 -30.547738 -64.434290 -6.249628 -12.509496 28.197741 -52.558907 -2.594748 18.592946 -57.454493 -40.547763 -68.758640 -95.876417 -67.222367 62.962548 60.770618 114.656227 -49.857533 156.587100 -37.321561 26.391499 52.174924 -1.875509 66.245691 -15.641278 0.711088 9.219862 13.645550 14.316368 32.340772 56.933807 -33.696591 49.202576 -20.206688 18.961223 28.989355 -81.146568 -68.360440 54.737693 74.293955 45.926677 8.846229 41.725994 17.584167 13.388704 99.188280 104.596697 -93.688899 25.161570
-22.938852 62.068028 -26.134417 39.230561 50.166520 141.032874 31.147094 53.615366 52.335604 10.681471 8.740464 -63.898803 5.295907 17.009968 -26.650877 -36.035620 -60.291576 -2.146781 -10.175231 41.278245 -52.967004 8.965698 13.781017 -60.020260 -49.953091 -71.700321 -103.773332 -69.087500 63.947755 56.038512 106.397600 -52.656414 140.880274 -43.038306 26.421135 39.608393 -3.836910 67.445406 1.080695 -2.050117 6.783276 11.760029 14.269458 34.785467 55.600568 -30.624147 50.525454 -19.460334 14.998064 27.613565 -82.018640 -68.741298 53.276828 74.632009 44.889499 10.493987 41.777204 15.798813 13.845002 101.340282 103.562190 -93.898504 24.886079
-22.852904 60.737409 -25.747068 35.019070 49.245664 144.203598 31.667499 56.289853 61.588157 4.898549 5.810281 -65.209517 7.264627 11.161882 -32.238640 -39.335357 -56.361519 -9.725967 -11.759686 45.229099 -47.855212 15.031283 11.089592 -60.825929 -55.084663 -71.677296 -109.733935 -69.266758 62.851052 49.495874 97.716504 -55.714936 128.551318 -42.529051 26.565604 23.380337 14.908116 47.655442 -0.249196 -4.860073 3.031529 9.872834 15.112135 36.787426 55.233059 -29.000608 50.809873 -18.778019 10.103603 25.794998 -81.690244 -65.640563 51.690971 73.112462 44.377030 9.155112 41.073285 14.847006 14.292721 103.710856 100.642612 -92.985505 25.099787
-22.661445 59.463200 -25.416047 31.470687 48.189392 148.073884 30.828574 59.694426 71.408801 -1.014870 3.776920 -66.965504 7.812086 7.652531 -37.391471 -44.247547 -56.687377 -17.445954 -13.676896 49.469694 -46.325516 19.746053 9.270896 -59.258824 -57.694403 -71.499506 -112.366188 -68.735124 61.540298 42.631934 88.721364 -58.150202 117.322036 -32.409108 24.844919 8.166924 -5.564145 67.387732 18.087464 -7.835927 -1.558185 7.268275 16.208766 40.229756 55.196675 -27.759345 50.967360 -17.836715 4.835151 23.882938 -80.501778 -61.041366 49.884731 70.741109 45.615931 8.081866 39.993551 12.779199 13.805414 105.863329 98.608998 -91.932878 24.963715
-22.380333 57.870082 -24.952190 25.204660 46.956389 152.636109 30.979009 62.286271 80.612884 -5.467933 3.371469 -69.347375 8.921900 5.299878 -42.134170 -50.595060 -56.000977 -20.712159 -16.405040 53.723369 -44.545797 22.089365 9.114505 -61.987286 -59.904598 -69.197370 -113.161235 -65.582882 60.905815 34.166505 82.037805 -60.592193 107.690261 -25.764305 17.587155 -1.941033 -0.247963 57.629960 22.390569 -10.322056 -6.658009 5.501936 15.157737 41.642181 54.131517 -26.879979 51.488538 -17.912842 0.027540 22.295436 -79.410388 -56.738672 47.050605 68.497071 46.553043 7.941551 37.981234 12.567512 12.537507 107.089873 96.071337 -90.843039 24.664616
-22.098012 56.038450 -24.160163 22.756474 47.710640 156.602017 28.977491 65.349618 87.241474 -3.178110 3.101209 -73.792148 11.016976 5.197991 -45.539624 -55.117519 -56.249285 -20.251810 -18.874051 58.138980 -45.351671 13.045113 10.399350 -67.454921 -60.773971 -59.360204 -113.235691 -58.529011 64.437541 24.708313 82.256801 -61.468786 109.897737 -25.519368 5.074384 -3.265314 -15.523591 59.070631 33.207509 -12.081877 -6.848588 4.830527 13.081990 41.710241 53.680103 -26.120762 52.111813 -17.836986 -5.373707 20.519447 -78.079314 -54.179454 46.295674 67.147508 48.211628 10.702666 35.277131 13.450232 11.815776 107.794681 94.511015 -88.829752 23.179529
-21.834063 54.481372 -23.372373 21.968480 47.558843 159.044998 24.181593 69.049394 93.469179 -0.359890 3.551520 -77.172894 10.685773 5.164216 -46.776400 -56.875678 -56.622388 -16.856063 -18.678423 57.763996 -44.461694 8.174137 15.051575 -71.711092 -55.384204 -64.504163 -101.175346 -51.134396 65.809378 17.254188 86.862774 -60.378763 114.780673 -26.508275 -6.708151 0.312037 -5.695248 56.015461 17.948417 -12.200613 -9.442818 3.128464 11.351510 42.317342 52.671151 -25.425941 51.782437 -18.417513 -10.170507 19.006576 -76.804138 -52.674327 46.838575 64.938304 48.264596 10.980273 32.104136 14.349961 10.262504 108.051844 92.355987 -87.253522 22.029788
-21.670189 53.541431 -22.607498 19.924398 46.432586 160.964131 21.197227 71.676312 98.820604 -0.690009 2.587952 -79.598847 8.699346 5.804777 -45.821820 -58.179292 -57.829402 -12.655294 -20.077286 59.175058 -44.278231 -2.030505 18.263572 -72.922672 -61.573793 -46.029990 -103.635341 -44.227189 62.699702 11.638733 97.689491 -60.007829 121.273697 -28.613677 -16.189182 10.082578 -17.226149 47.208594 32.215782 -11.199948 -10.785969 2.355651 8.303049 41.068589 49.485585 -25.892552 50.537471 -21.496608 -12.814164 18.463733 -75.835297 -51.951737 46.843947 62.553161 48.138285 11.142806 28.376231 15.773511 7.847773 107.296876 89.805561 -86.642555 21.107168
-21.638324 53.054737 -21.765282 20.510063 47.383594 160.944187 16.528838 72.917221 99.364165 3.623268 1.577847 -83.654948 6.313429 5.670313 -43.319771 -56.120604 -51.002395 -16.625823 -21.711541 44.375930 -48.511548 -4.328465 19.609449 -68.099260 -59.416553 -47.434431 -96.720772 -29.876368 63.302658 6.771702 103.434998 -57.246045 136.896088 -26.510891 -20.021096 22.719596 -16.949644 49.355770 13.785618 -8.687505 -10.289224 1.589667 4.599775 42.023828 46.768641 -26.428234 48.964489 -24.352257 -15.017677 17.934806 -73.803630 -53.612972 48.055155 60.499958 48.733178 12.541138 25.337661 15.516383 7.015293 106.926140 87.234302 -86.137305 19.880958
-21.474409 52.898835 -20.944514 22.429984 48.832376 159.482267 12.927923 74.063750 98.641408 4.425494 0.005960 -86.765587 5.469821 6.604883 -39.587110 -54.065950 -52.870001 -15.032640 -20.522651 44.308544 -47.304753 -2.010314 17.882576 -69.172946 -62.126574 -40.837872 -98.089241 -31.125790 59.343757 12.119728 113.132583 -54.007081 147.674058 -22.894728 -15.811760 31.594341 -16.270045 31.815332 32.743541 -7.611032 -7.659664 0.898932 2.942730 42.232436 44.938915 -26.823780 46.628585 -26.127646 -16.724946 17.209722 -71.749983 -53.759627 48.552973 59.529832 48.687699 15.485471 23.003367 14.505502 8.187148 106.608284 84.852581 -85.573302 18.072066
-21.345565 53.206577 -20.377454 24.259080 49.837114 158.056014 9.524496 76.539571 95.834835 7.923127 0.214161 -89.428992 5.279741 8.486532 -34.851406 -51.003058 -54.877182 -13.795648 -18.843899 41.663727 -47.645419 -0.021376 14.648784 -69.082002 -59.686598 -44.787019 -96.499358 -24.231532 59.394355 14.462840 115.187725 -44.362082 159.297811 -17.500500 -6.651589 38.316484 -11.760443 34.964128 24.201225 -6.199761 -5.202374 0.699897 1.502147 40.516214 43.927911 -26.261758 43.791447 -26.861295 -17.598476 16.513727 -68.935337 -54.298399 48.477199 58.436114 48.757589 18.109442 21.218807 13.714574 9.851023 105.749387 82.171315 -84.959828 15.874369
-21.269984 54.203033 -20.123367 27.789314 50.374513 154.952035 6.826251 78.009394 92.728882 10.760656 -0.035068 -91.239258 4.293853 7.930418 -30.570035 -44.956811 -55.300589 -14.778591 -17.104346 35.954491 -48.444476 2.024546 11.545084 -67.787531 -61.778139 -50.178002 -99.385482 -19.471536 61.235412 19.337652 115.329028 -32.721189 169.676393 -12.976546 5.199703 43.483850 -11.511241 30.071175 25.006074 -5.281726 -3.957922 -1.536324 1.841277 40.986763 44.147003 -25.256675 39.761045 -26.523670 -18.945121 15.133479 -67.938573 -55.502469 48.472186 57.759474 47.508426 20.450503 19.323853 12.648696 11.882614 103.858231 79.248718 -84.388387 13.396654
